# xmcd
#
# Track frame offsets:
# 150
# 11294
# 25497
# 43023
# 56548
# 65643
# 80494
# 91740
# 106781
# 123926
#
# Disc length: 1890 seconds
#
#
# Revision: 0
# Processed by: cddbd v1.5.1PL2 Copyright (c) Steve Scherf et al.
# Submitted via: FreeRIP 2.943 
#
DISCID=7407600a
DTITLE=Ricky Skaggs - Solid Ground
DYEAR=1995
DGENRE=Country
TTITLE0=Solid Ground
TTITLE1=Just The Two Of Us
TTITLE2=Back Where We Belong
TTITLE3=Cry, Cry Darlin'
TTITLE4=I Ain't Never
TTITLE5=Every Drop Of Water
TTITLE6=Callin' Your Name
TTITLE7=When
TTITLE8=Can't Control The Wind
TTITLE9=Cat's In The Craddle
EXTD=
EXTT0=
EXTT1=
EXTT2=
EXTT3=
EXTT4=
EXTT5=
EXTT6=
EXTT7=
EXTT8=
EXTT9=
PLAYORDER=
